Jump_normalized_Motion_pl09
version=1
nRows=25
nColumns=43
inDegrees=yes
endheader
time		pelvis_tilt		pelvis_list		pelvis_rotation		pelvis_tx		pelvis_ty		pelvis_tz		hip_flexion_r		hip_adduction_r		hip_rotation_r		knee_angle_r		ankle_angle_r		subtalar_angle_r		mtp_angle_r		hip_flexion_l		hip_adduction_l		hip_rotation_l		knee_angle_l		ankle_angle_l		subtalar_angle_l		mtp_angle_l		lumbar_extension		lumbar_bending		lumbar_rotation		neck_flexion		neck_lateral_bending		neck_rotation		arm_flex_r		arm_add_r		arm_rot_r		elbow_flex_r		pro_sup_r		wrist_flex_r		wrist_dev_r		hand_finger_flex_r		arm_flex_l		arm_add_l		arm_rot_l		elbow_flex_l		pro_sup_l		wrist_flex_l		wrist_dev_l		hand_finger_flex_l		
2.044167		-2.289666		-19.208383		87.991194		-0.021547		1.614452		1.652998		93.292106		-8.816628		16.935601		-139.408833		28.500251		13.128254		12.298748		88.883434		-5.426510		2.925822		-141.663963		30.816704		8.750464		9.776891		-46.739451		-4.623983		0.061955		36.585795		5.306802		-3.370652		83.417944		-21.073778		21.867789		71.238345		85.274571		-7.220400		-3.647636		-13.076575		86.298293		-12.705646		18.806440		65.367372		88.962273		-8.794430		1.709059		-2.928919		
2.047626		-2.206925		-19.306670		88.146816		-0.021768		1.614951		1.650817		93.044478		-8.922889		16.868239		-139.417841		28.360013		13.089853		12.363205		88.576091		-5.270717		3.004757		-141.627813		30.882254		8.709490		9.706229		-46.477136		-4.563556		-0.027105		36.291887		5.531440		-3.412653		84.556279		-20.558173		22.029089		70.944169		85.096886		-6.861458		-3.481979		-13.406453		87.745768		-12.516514		19.560583		64.943914		88.968798		-8.801265		1.704020		-3.127245		
2.051086		-2.164242		-19.618202		88.211656		-0.021918		1.615573		1.648585		92.960583		-8.943484		16.813053		-139.293761		28.312904		13.094804		12.387321		88.423746		-5.209250		3.024498		-141.497584		30.915775		8.706456		9.682403		-46.041999		-4.563387		-0.097173		36.389379		5.582055		-3.428545		85.550982		-19.950534		22.018127		70.763942		85.033110		-6.751473		-3.433536		-13.548187		88.904309		-12.084821		19.729251		64.674872		88.950370		-8.862825		1.712331		-3.243017		
2.054545		-2.086193		-19.619973		88.378679		-0.022061		1.616556		1.646203		92.551787		-9.063276		16.720622		-139.262076		28.155669		12.992002		12.457971		87.959301		-5.106666		3.073853		-141.400573		30.974135		8.749654		9.597599		-45.912563		-4.520499		-0.227360		36.129448		5.843883		-3.420810		86.662495		-19.425788		22.100711		70.409015		84.832458		-6.212412		-3.471654		-13.986435		90.362219		-11.906222		20.520034		64.198649		88.853826		-8.948924		1.493617		-3.584991		
2.058005		-2.036513		-19.877617		88.460753		-0.022233		1.617263		1.643822		92.410920		-9.113413		16.679762		-139.178327		28.088939		12.962652		12.491427		87.758665		-5.101675		3.068284		-141.289117		31.007143		8.774660		9.558321		-45.516280		-4.510999		-0.296693		36.196211		5.918816		-3.429702		87.664791		-18.863177		22.114998		70.157991		84.748059		-6.013790		-3.474933		-14.235930		91.527692		-11.513551		20.768234		63.859788		88.787448		-9.012157		1.441023		-3.771031		
2.061465		-1.985788		-20.074335		88.576869		-0.022390		1.617896		1.641382		92.220985		-9.161855		16.648780		-139.156326		27.961017		12.906266		12.517649		87.531968		-5.105199		3.056327		-141.221087		31.041902		8.816300		9.516499		-45.156583		-4.487332		-0.368476		36.110427		6.048178		-3.445047		88.716943		-18.363660		22.253142		69.834030		84.629703		-5.778267		-3.476919		-14.537521		92.803009		-11.183674		21.240243		63.413311		88.749087		-9.001636		1.381385		-3.989261		
2.064924		-1.941608		-20.072136		88.719022		-0.022494		1.619220		1.638691		91.736931		-9.231879		16.580697		-139.056311		27.752128		12.722547		12.577528		86.990551		-5.097105		3.036962		-141.039307		31.081990		8.939938		9.414049		-45.041207		-4.483996		-0.483838		35.802811		6.277927		-3.438403		89.778014		-17.976062		22.475310		69.545429		84.147217		-5.304387		-3.694290		-15.379486		94.186233		-10.980348		22.048563		62.861181		88.510448		-9.014979		0.920718		-4.567889		
2.068384		-1.900157		-20.426848		88.796640		-0.022693		1.619932		1.636006		91.644094		-9.247754		16.567282		-138.928954		27.710606		12.726678		12.588060		86.866350		-5.165283		2.970452		-140.899792		31.088924		8.957210		9.398475		-44.544685		-4.459007		-0.524204		35.868542		6.284449		-3.456898		90.631258		-17.479199		22.461098		69.503171		84.048317		-5.283125		-3.698858		-15.560541		95.125849		-10.555764		22.058069		62.716798		88.462438		-9.043559		0.901550		-4.691333		
2.071843		-1.856083		-20.465504		88.931408		-0.022807		1.621092		1.633235		91.216244		-9.307664		16.523018		-138.853662		27.506230		12.557163		12.639738		86.401058		-5.190232		2.929717		-140.755031		31.131253		9.059553		9.324503		-44.379345		-4.451308		-0.607064		35.761354		6.494953		-3.476415		91.658532		-17.108333		22.742220		69.270206		82.975386		-5.091932		-3.816879		-16.777454		96.463247		-10.243569		22.717049		62.088503		88.173507		-9.007577		0.387392		-5.435537		
2.075303		-1.808438		-20.726979		89.042308		-0.022933		1.622002		1.630394		90.992904		-9.312160		16.505800		-138.739687		27.393953		12.524803		12.659474		86.159469		-5.233885		2.872645		-140.579074		31.145055		9.093207		9.295845		-43.977588		-4.423401		-0.654584		35.666570		6.556723		-3.497464		92.512918		-16.729305		22.832865		69.252623		82.572543		-5.013657		-3.864571		-17.259739		97.474394		-9.913407		22.956990		61.872938		88.076232		-8.974519		0.237185		-5.724914		
2.078763		-1.740987		-21.060274		89.151337		-0.023040		1.622594		1.627720		90.907531		-9.324210		16.457397		-138.641722		27.190991		12.589250		12.663441		86.040525		-5.244715		2.878073		-140.439319		31.184597		9.059066		9.289837		-43.440319		-4.386438		-0.730715		35.639938		6.576717		-3.527628		93.441756		-16.216119		22.977868		68.943829		82.384465		-4.978912		-3.762970		-17.508654		98.649304		-9.566207		23.317698		61.340120		88.142185		-8.864233		0.432065		-5.850930		
2.082222		-1.680078		-21.346003		89.257141		-0.023228		1.623396		1.624712		90.716582		-9.343664		16.441726		-138.535847		27.042833		12.620242		12.665188		85.818322		-5.276703		2.827461		-140.279350		31.173567		9.063766		9.284117		-42.990158		-4.337595		-0.776495		35.465391		6.634057		-3.536870		94.191462		-15.833158		22.979516		69.000691		82.231743		-4.958934		-3.811715		-17.672331		99.555273		-9.295492		23.479965		61.257514		88.180489		-8.818485		0.434894		-5.945531		
2.085682		-1.601201		-21.462330		89.415226		-0.023289		1.624423		1.621736		90.373950		-9.397595		16.374063		-138.439635		26.717415		12.632161		12.691294		85.406051		-5.247666		2.847503		-140.107978		31.189319		9.048982		9.274829		-42.695259		-4.300638		-0.934914		35.350363		6.803957		-3.485342		95.100365		-15.316350		23.084458		68.633133		81.749106		-4.881983		-3.966222		-18.074959		100.795315		-9.050291		24.037084		60.661745		88.288206		-8.769490		0.430429		-6.240813		
2.089141		-1.539536		-21.475191		89.570154		-0.023423		1.625799		1.618501		89.853005		-9.457371		16.316074		-138.315118		26.431535		12.584145		12.763716		84.843497		-5.221987		2.819783		-139.910929		31.182780		9.060286		9.258132		-42.548254		-4.261145		-1.095124		35.167932		7.018972		-3.396188		95.962498		-14.901607		23.199240		68.396411		81.015529		-4.690430		-4.359110		-18.675961		101.939798		-8.877692		24.565108		60.280820		88.329292		-8.758193		0.210154		-6.709180		
2.092601		-1.460565		-21.732790		89.677863		-0.023516		1.626664		1.615408		89.624067		-9.428844		16.277919		-138.199233		26.203120		12.616404		12.805513		84.587818		-5.255599		2.797444		-139.741002		31.168504		9.039343		9.250340		-42.100919		-4.212587		-1.154306		35.084103		7.035773		-3.378414		96.766881		-14.456122		23.235075		68.198229		80.770987		-4.614396		-4.471581		-18.885943		102.933634		-8.579028		24.803443		59.938440		88.351131		-8.731550		0.281871		-6.893448		
2.096061		-1.350496		-21.827183		89.812334		-0.023574		1.627907		1.612059		89.182974		-9.398002		16.181989		-138.061110		25.842510		12.591941		12.923834		84.107581		-5.283861		2.823802		-139.555298		31.115589		9.041351		9.239999		-41.831221		-4.151397		-1.238107		34.848895		7.185807		-3.311931		97.575535		-14.067721		23.328789		67.953482		80.256673		-4.430960		-4.827281		-19.179642		103.984265		-8.399645		25.281928		59.575538		88.352553		-8.708157		0.212220		-7.222492		
2.099520		-1.247586		-21.973094		89.938475		-0.023650		1.629094		1.608639		88.775023		-9.351323		16.097438		-137.905392		25.569345		12.551741		13.063686		83.678464		-5.329456		2.826991		-139.364913		31.081546		9.061624		9.235485		-41.505017		-4.091079		-1.314491		34.719119		7.292304		-3.257748		98.348298		-13.684684		23.400680		67.737498		79.761161		-4.292618		-5.160188		-19.467366		104.932548		-8.168975		25.610284		59.264571		88.292665		-8.718153		0.112703		-7.538425		
2.102980		-1.127321		-22.193930		90.070066		-0.023650		1.630114		1.605219		88.471089		-9.274630		16.013636		-137.779822		25.201619		12.581658		13.180560		83.349620		-5.394136		2.862170		-139.176089		31.049483		9.075933		9.243242		-41.075832		-4.023041		-1.351117		34.551893		7.368128		-3.242156		99.091813		-13.321305		23.492697		67.515194		79.420834		-4.307928		-5.328973		-19.686785		105.891294		-7.897475		25.949839		58.851213		88.239387		-8.686586		0.102205		-7.696968		
2.106439		-0.977187		-22.301407		90.223654		-0.023616		1.631389		1.601566		88.014102		-9.206566		15.869686		-137.626761		24.756041		12.551303		13.436172		82.865770		-5.473672		2.943836		-138.978494		31.013359		9.132644		9.271967		-40.769616		-3.939894		-1.389689		34.336229		7.546846		-3.197745		99.824389		-13.030226		23.678428		67.296113		78.787246		-4.364858		-5.701777		-20.116645		106.847743		-7.684198		26.430955		58.425114		88.055090		-8.678433		-0.137895		-7.955256		
2.109899		-0.872941		-22.569189		90.359416		-0.023615		1.632321		1.597997		87.779086		-9.153161		15.798719		-137.500989		24.374398		12.621385		13.550306		82.567142		-5.543339		2.968992		-138.779280		31.010974		9.126850		9.294974		-40.272273		-3.875241		-1.445540		34.221581		7.597607		-3.200879		100.512890		-12.667702		23.759061		67.078561		78.576058		-4.522239		-5.738212		-20.393319		107.701417		-7.382409		26.679203		58.009948		87.983115		-8.661682		-0.146052		-8.032816		
2.113359		-0.723230		-22.642019		90.539460		-0.023630		1.633721		1.594074		87.280007		-9.131714		15.668020		-137.331133		23.757384		12.635539		13.966477		82.009063		-5.588160		3.078138		-138.558734		30.984243		9.166180		9.391650		-39.987563		-3.780126		-1.497951		33.948088		7.815202		-3.130701		101.182216		-12.462457		24.092198		66.947016		78.031387		-4.906976		-5.951472		-21.318332		108.611231		-7.216872		27.283112		57.536611		87.680845		-8.652356		-0.610673		-8.195775		
2.116818		-0.633984		-22.899923		90.671868		-0.023668		1.634685		1.590334		87.055088		-9.106432		15.611966		-137.213027		23.349003		12.712500		14.140042		81.666746		-5.665733		3.086887		-138.337332		30.991618		9.144594		9.445320		-39.494491		-3.719033		-1.573114		33.842868		7.858483		-3.134898		101.843076		-12.129948		24.197743		66.743394		77.912258		-5.094429		-5.842779		-21.772607		109.387108		-6.944273		27.502472		57.157674		87.601685		-8.671279		-0.662017		-8.259221		
2.120278		-0.525602		-23.063256		90.814542		-0.023729		1.635872		1.586458		86.728279		-9.092532		15.542275		-137.059206		22.737181		12.807738		14.366243		81.199725		-5.721487		3.142481		-138.114350		30.983225		9.129262		9.530072		-39.104110		-3.643247		-1.651713		33.612944		7.970114		-3.086747		102.502332		-11.841157		24.380570		66.592500		77.848977		-5.384454		-5.644202		-22.466315		110.211570		-6.765805		27.890987		56.750352		87.550815		-8.682929		-0.837736		-8.336482		
2.123737		-0.359443		-23.109402		90.975721		-0.023796		1.637329		1.582338		86.203144		-9.046115		15.384876		-136.858408		22.080063		12.657321		16.064029		80.573658		-5.807216		3.270219		-137.863840		30.934057		9.176985		10.252375		-38.842919		-3.516879		-1.601177		33.428290		7.986957		-3.163315		103.175076		-11.783248		24.665623		66.581282		77.465092		-4.627712		-5.350482		-26.025512		111.053221		-6.578622		28.485468		56.272326		87.014435		-8.847649		-1.334454		-8.669473		
2.127197		-0.202350		-23.216026		91.126562		-0.023852		1.638696		1.578226		85.761355		-8.955758		15.277189		-136.662866		21.349051		12.582695		17.629858		80.022560		-5.894561		3.396269		-137.615205		30.852393		9.241076		10.942393		-38.511661		-3.403829		-1.621434		33.294708		8.074948		-3.111005		103.799921		-11.567826		24.744234		66.437804		77.217010		-3.756524		-5.103674		-29.244178		111.804878		-6.430852		28.922304		55.927671		86.701017		-8.994261		-1.601345		-8.967953		
